<?xml version="1.0" encoding="utf-8" standalone="no"?>
<!DOCTYPE svg PUBLIC "-//W3C//DTD SVG 1.1//EN"
  "http://www.w3.org/Graphics/SVG/1.1/DTD/svg11.dtd">
<!-- Created with matplotlib (http://matplotlib.org/) -->
<svg height="816pt" version="1.1" viewBox="0 0 1728 816" width="1728pt" xmlns="http://www.w3.org/2000/svg" xmlns:xlink="http://www.w3.org/1999/xlink">
 <defs>
  <style type="text/css">
*{stroke-linecap:butt;stroke-linejoin:round;}
  </style>
 </defs>
 <g id="figure_1">
  <g id="patch_1">
   <path d="
M0 816.3
L1728 816.3
L1728 0
L0 0
z
" style="fill:#ffffff;"/>
  </g>
  <g id="axes_1">
   <g id="line2d_1">
    <path clip-path="url(#p842b7fb432)" d="
M710.525 306.884
L714.043 309.24
L707.806 307.942
L707.38 309.932
L708.539 308.106
L706.053 305.992
L707.484 305.989
L706.875 305.997
L703.726 307.046
L705.895 304.553
L700.401 304.304
L704.952 305.13
L707.622 306.391
L709.769 299.784
L712.906 297.753
L713.187 298.002
L719.965 301.34
L718.944 297.533
L713.874 297.423
L713.934 298.647
L705.763 299.656
L704.206 301.563
L703.977 301.455
L706.221 299.358
L710.269 299.669
L710.856 299.444
L716.862 300.649
L716.905 300.99
L716.593 300.94
L723.558 299.405
L731.135 296.998
L725.525 294.073
L717.251 300.989
L720.081 300.349
L722.882 299.138
L720.931 294.489
L721.424 291.38
L721.498 293.238
L725.653 293.456
L723.525 294.194
L718.604 287.01
L728.37 287.761
L728.343 290.428
L727.692 291.216
L726.579 293.806
L731.831 293.953
L731.226 292.744
L730.652 292.299
L731.539 290.003
L730.844 289.452
L730.891 289.639
L732.387 293.147
L739.938 299.713
L738.221 309.986
L738.29 313.221
L743.141 314.593
L743.495 314.934
L743.844 310.198
L739.472 305.041
L734.209 299.857
L745.17 304.931
L739.638 301.388
L739.316 300.88
L739.696 300.307
L741.411 295.419
L741.25 293.02
L739.845 292.847
L732.034 295.628
L733.283 300.277
L748.174 296.606
L747.821 293.029
L744.866 287.545
L752.799 284.73
L752.136 283.72
L752.046 285.319
L752.272 288.039
L752.807 290.289
L752.45 291.701
L751.267 292.713
L755.026 294.341
L756.997 294.621
L760 289.885
L767.381 290.153
L780.49 289.551
L770.255 285.089
L770.401 284.522
L771.798 286.348
L774.443 293.909
L776.905 291.935
L784.082 294.487
L783.448 294.285
L784.636 290.791
L782.071 296.033
L783.218 296.519
L778.791 303.318
L779.13 302.416
L764.786 299.128
L762.535 306.713
L762.962 306.872
L768.163 309.1
L782.086 310.202
L778.559 313.2
L778.5 312.325
L777.82 306.044
L777.538 307.325
L777.571 311.776
L776.213 315.636
L770.288 323.956
L766.674 324.758
L766.463 325.048
L764.547 326.105
L762.097 325.832
L761.353 322.787
L776.779 327.366
L776.753 327.332
L781.879 326.97
L781.914 327.141
L780.158 328.514
L778.557 332.346
L781.375 330.779
L781.871 334.606
L787.749 328.291
L782.07 330.217
L782.325 332.869
L782.806 330.754
L782.353 338.748
L781.645 338.153
L782.869 338.292
L782.196 338.616
L781.319 348.053
L781.028 348.496
L774.864 347.472
L778.625 343.08
L784.89 349.376
L784.242 348.208
L777.392 363.95
L779.607 365.04
L785.637 362.037
L785.727 361.799
L773.478 364.774
L775.183 367.186
L777.762 371.378
L777.946 371.165
L776.005 372.039
L780.638 371.164
L779.496 372.306
L777.477 375.535
L774.587 376.635
L770.187 378.828
L762.927 375.23
L751.753 381.712
L742.735 382.521
L743.721 376.477
L741.813 375.55
L743.949 380.02
L743.681 377.055
L743.724 382.486
L747.558 385.109
L747.12 384.691
L748.087 384.505
L749.005 384.689
L741.624 384.651
L749.594 387.448
L749.502 387.517
L754.64 381.426
L753.484 380.508
L747.504 381.266
L748.718 379.832
L742.524 379.418
L757.427 373.405
L751.954 370.686
L744.954 370.638
L745.158 371.736
L742.527 374.154
L742.776 373.765
L735.029 373.511
L741.425 373.857
L738.896 379.373
L738.877 379.132
L742.053 378.559
L738.009 380.996
L731.638 378.271
L735.46 379.891
L736.05 383.333
L744.66 384.051
L739.69 392.192
L749.742 396.148
L748.957 396.633
L748.474 397.145
L748.883 396.897
L748.047 392.073
L750.718 398.321
L753.64 398.905
L755.049 392.945
L756.807 395.464
L764.819 404.097
L765.708 402.624
L768.837 391.674
L769.492 390.564
L779.54 399.187
L774.478 397.359
L774.375 397.788
L776.401 400.339
L783.754 398.094
L772.977 400.419
L777.438 398.241
L777.438 398.241
L777.438 398.241
L770.446 401.542
L768.024 399.889
L768.321 401.881
L758.616 397.758
L759.317 400.266
L759.784 396.932
L765.301 392.844
L768.448 389.792
L785.712 386.032
L784.391 384.295
L784.503 383.71
L779.609 383.599
L778.655 380.803
L777.736 380.102
L775.209 378.492
L775.279 377.725
L774.832 377.617
L771.401 377.985
L780.462 374.7
L779.298 380.604
L783.945 379.571
L783.756 379.617
L779.995 374.615
L779.808 376.24
L778.984 376.527
L779.439 379.628
L777.692 378.539
L786.244 378.41
L789.267 386.043
L784.932 386.651
L786.839 392.712
L786.592 393.815
L788.89 394.415
L787.743 394.774
L798.417 392.061
L807.671 391.66
L809.434 393.831
L808.874 387.849
L814.167 388.658
L813.467 385.318
L819.017 386.108
L818.98 386.236
L817.309 385.306
L822.048 385.677
L816.465 384.298
L829.736 385.531
L827.322 385.491
L826.738 385.669
L827.291 384.432
L822.661 380.894
L824.844 383.557
L821.905 382.04
L816.2 383.494
L816.659 383.033
L816.419 382.727
L817.675 378.069
L819.888 378.283
L828.509 372.77
L829.884 373.217
L827.775 371.063
L831.936 371.17
L829.756 373.465
L824.797 375.365
L819.411 371.848
L818.516 371.06
L817.663 368.091
L817.032 367.413
L809.886 370.051
L810.646 366.292
L809.852 376.252
L810.481 375.848
L808.86 374.796
L806.836 377.042
L807.841 375.952
L809.874 376.191
L793.793 375.442
L793.602 375.55
L797.165 376.403
L785.586 371.458
L787.856 366.281
L789.929 368.533
L794.077 369.429
L791.854 371.569
L789.652 370.894
L784.036 370.639
L783.605 370.466
L777.922 369.452
L785.266 367.099
L782.103 369.295
L785.2 368.173
L787.024 368.466
L789.495 366.725
L790.696 360.843
L795.88 360.357
L788.767 362.427
L781.116 360.606
L781.437 360.732
L778.537 362.615
L779.634 359.059
L777.705 358.928
L780.882 357.783
L773.839 359.172
L774.851 360.368
L774.984 359.571
L777.798 355.949
L772.223 360.582
L772.474 358.263
L768.724 362.115
L770.854 364.238
L773.212 358.037
L778.438 361.331
L773.345 365.397
L773.505 365.43
L785.335 368.866
L790.524 371.426
L789.923 368.544
L790.923 367.858
L800.302 363.956
L799.385 361.058
L804.456 362.924
L807.04 363.477
L804.689 365.013
L810.805 367.002
L805.922 366.601
L806.006 367.366
L812.526 362.492
L798.647 354.81
L802.852 351.94
L801.393 347.117
L806.154 343.852
L821.655 345.971
L825.147 344.15
L819.81 342.911
L808.27 339.08
L809.19 339.039
L806.258 333.029
L802.055 328.057
L801.479 327.018
L803.011 328.976
L804.025 330.034
L808.413 333.397
L807.882 333.191
L807.662 332.568
L807.88 331.814
L807.952 329.076
L810.313 327.169
L815.511 327.344
L826.875 338.069
L823.902 337.814
L826.892 335.425
L830.738 337.092
L820.861 337.602
L818.826 338.322
L814.555 343.237
L814.356 341.005
L812.72 339.917
L811.293 342.153
L812.345 343.626
L813.432 343.115
L816.657 342.803
L829.217 344.197
L830.299 343.307
L829.717 343.739
L828.834 343.282
L826.932 348.449
L823.044 343.186
L822.802 346.148
L829.915 342.904
L842.867 342.368
L842.444 341.803
L840.169 339.777
L839.925 339.797
L836.153 341.251
L836.629 341.345
L842.4 344.324
L844.735 348.742
L845.122 352.435
L843.067 353.659
L853.353 353.309
L854.264 360.417
L853.983 357.564
L847.318 363.124
L846.511 365.039
L841.992 363.561
L833.499 365.429
L833.093 367.489
L834.319 370.116
L832.808 368.823
L833.829 368.899
L834.411 368.819
L847.349 371.593
L854.289 364.885
L854.836 365.828
L853.748 361.367
L856.844 367.687
L863.24 369.291
L863.483 371.967
L856.829 371.383
L855.465 370.923
L845.486 368.329
L849.091 372.103
L841.444 368.629
L844.669 370.51
L844.18 370.518
L842.184 371.883
L845.773 373.217
L838.279 372.341
L839.239 372.21
L842.666 372.405
L841.739 366.735
L848.299 368.54
L837.691 373.785
L847.964 378.301
L841.696 379.482
L842.129 383.517
L846.583 391.668
L837.597 400.162
L836.581 395.959
L845.024 396.858
L844.51 394.225
L844.559 395.167
L841.925 391.123
L845.331 388.666
L855.256 387.491
L853.58 386.547
L844.479 400.865
L843.391 400.208
L843.617 400.123
L841.719 400.54
L840.544 396.97
L837.616 398.312
L837.022 398.002
L834.472 402.439
L834.157 404.499
L828.285 407.252
L830.685 403.294
L831.467 406.26
L831.19 413.816
L832.068 418.783
L837.427 418.007
L826.496 413.322
L821.187 416.43
L820.105 417.257
L819.144 417.42
L819.597 417.649
L839.406 409.702
L835.427 406.106
L823.328 399.283
L822.663 394.442
L820.48 393.464
L828.428 396.208
L831.353 401.185
L836.666 400.789
L836.453 400.978
L840.396 403.223
L843.897 402.144
L854.391 401.172
L853.554 404.671
L855.749 405.202
L855.853 401.922
L858.874 408.688
L849.91 410.026
L849.604 410.256
L842.162 408.231
L842.375 407.795
L842.057 407.584
L840.382 409.327
L840.728 408.596
L848.031 412.818
L847.813 412.87
L848.559 412.94
L846.537 411.579
L841.128 411.496
L835.58 404.044
L831.964 397.17
L830.266 399.808
L827.249 398.78
L831.364 395.129
L828.74 391.439
L833.31 399.465
L832.296 398.268
L831.915 396.624
L832.439 396.917
L832.045 397.054
L832.954 395.669
L823.833 396.276
L829.919 394.274
L829.176 391.95
L831.169 393.749
L839.548 395.047
L841.957 390.492
L838.393 386.716
L837.405 388.091
L837.53 388.109
L836.626 387.145
L837.047 389.106
L822.87 387.631
L827.045 385.037
L830.946 382.371
L831.092 379.601
L828.617 372.932
L815.871 376.927
L815.875 376.872
L824.113 385.04
L825.25 384.044
L816.73 391.227
L810.969 392.646
L811.073 389.575
L808.648 391.802
L809.329 387.386
L808.294 393.194
L804.994 399.514
L800.782 397.477
L799.779 397.759
L794.336 397.986
L806.282 398.124
L803.347 395.34
L806.233 391.275
L805.676 398.376
L809.654 398.929
L813.744 403.012
L813.54 404.334
L809.803 403.619
L817.184 407.329
L817.446 405.11
L810.85 407.596
L807.847 405.429
L807.358 400.785
L804.096 403.945
L815.368 404.38
L814.213 407.016
L810.433 400.195
L811.635 400.434
L806.467 395.579
L807.183 395.222
L810.305 392.75
L813.797 390.208
L810.524 393.099
L805.833 396.062
L818.249 395.188
L833.63 393.09
L835.137 392.602
L834.651 389.782
L836.937 391.131
L839.965 389.704
L837.978 387.221
L837.698 387.284
L826.79 380.836
L829.987 375.829
L837.905 372.074
L820.3 372.8
L826.075 371.812
L826.24 372.246
L829.155 373.012
L826.333 374.208
L823.076 375.402
L827.744 373.19
L823.624 373.386
L823.717 373.097
L816.869 372.796
L817.383 369.444
L825.763 366.31
L821.455 363.613
L815.053 367.232
L814.054 365.735
L813.907 366.54
L812.756 367.773
L817.452 371.706
L805.188 368.649
L805.417 367.394
L803.021 366.362
L800.502 367.185
L801.031 366.342
L801.946 366.124
L803.186 364.894
L800.291 365.293
L795.813 365.434
L795.064 372.562
L801.644 373.073
L801.317 373.286
L803.328 377.892
L808.818 381.747
L810.235 380.32
L809.695 379.959
L796.779 381.043
L796.631 387.514
L799.857 388.251
L790.645 383.234
L790.009 386.609
L779.387 385.985
L780.979 381.6
L783.903 379.715
L798.215 378.535
L797.513 378.013
L795.162 370.341
L793.63 370.72
L795.981 371.197
L791.722 368.096
L783.094 367.113
L776.235 371.947
L777.653 377.407
L766.893 376.056
L769.871 379.992
L772.717 383.261
L773.163 379.473
L760.831 387.104
L750.74 381.518
L746.084 380.678
L748.312 382.378
L748.333 382.083
L747.958 382.379
L752.683 386.276
L758.021 393.313
L757.898 393.197
L748.037 388.984
L749.033 388.309
L749.041 388.443
L744.694 387.625
L743.158 379.832
L743.502 379.719
L741.997 378.604
L741.971 379.55
L738.775 382.044
L740.61 382.879
L749.362 383.362
L760.602 381.624
L762.074 384.725
L766.455 390.777
L767.955 387.923
L768.258 387.954
L753.76 383.046
L758.59 384.011
L761.111 385.221
L758.656 384.215
L759.063 384.918
L761.012 384.774
L764.267 383.705
L768.451 377.329
L773.354 371.439
L783.482 372.939
L788.588 379.495
L791.792 374.347
L790.857 375.564
L787.733 375.973
L784.677 378.448
L775.709 378.534
L769.853 384.015
L769.336 385.812
L765.674 379.119
L764.334 380.681
L766.073 381.885
L772.199 381.123
L772.195 381.129
L768.642 383.271
L761.93 387.117
L763.442 389.287
L771.671 389.436
L775.815 385.85
L775.515 391.478
L771.166 400.34
L775.213 402.36
L773.057 400.301
L775.717 400.501
L768.913 401.67
L771.571 399.209
L779.012 395.724
L774.111 398.639
L770.996 400.049
L770.437 399.696
L773.227 402.624
L772.711 405.631
L770.869 405.926
L777.131 403.331
L780.343 397.138
L778.003 396.303
L776.919 399.553
L773.478 404.134
L769.521 413.728
L773.468 414.791
L783.001 411.413
L781.997 413.675
L793.89 411.106
L795.534 412.836
L786.889 412.668
L773.287 411.853
L767.649 418.153
L764.339 417.183
L758.064 416.524
L750.185 410.766
L752.114 410.989
L757.074 408.225
L750.349 416.461
L750.444 425.396
L754.766 425.996
L755.173 426.504
L754.866 426.162
L754.142 420.194
L750.274 423.495
L750.239 418.724
L749.379 419.737
L748.553 418.921
L750.012 421.858
L761.916 429.218
L753.218 427.831
L743.51 431.79
L746.574 431.405
L756.84 437.684
L770.844 441.826
L772.384 446.413
L773.425 442.382
L763.426 447.456
L769.753 444.646
L771.026 444.626
L774.272 443.793
L765.466 445.628
L767.78 444.7
L772.716 446.712
L759.244 452
L758.8 451.952
L750.657 442.814
L753.809 441.238
L746.578 439.654
L738.356 441.339
L740.044 431.804
L740.708 437.161
L741.051 436.016
L740.915 435.062
L743.324 436.825
L740.933 434.897
L740.513 431.322
L740.829 426.995
L744.59 427.586
L747.382 426.705
L747.019 426.457
L745.09 432.881
L744.668 437.076
L745.723 430.312
L744.121 434.243
L749.904 429.328
L749.947 429.832
L741.933 432.756
L737.711 431.802
L733.804 433.262
L729.113 431.288
L727.023 432.963
L729.323 432.802
L735.196 429.134
L737.677 431.967
L732.819 428.482
L736.505 429.787
L735.445 431.04
L734.249 427.648
L733.043 426.538
L737.771 426.592
L737.494 434.256
L737.665 434.218
L739.482 434.484
L739.29 433.421
L739.504 439.416
L738.391 439.176
L740.243 447.903
L739.71 448.14
L739.232 448.504
L736.149 446.882
L743.767 453.586
L743.036 453.055
L738.158 459.994
L729.24 458.048
L726.119 458.965
L728.529 458.122
L733.528 456.701
L726.569 463.143
L724.661 463.08
L730.539 461.069
L733.129 461.869
L729.543 458.964
L726.051 453.537
L726.256 451.423
L731.242 444.973
L721.544 441.24
L722.044 441.176
L721.838 442.326
L712.288 438.125
L716.141 437.698
L703.67 433.917
L699.205 433.234
L706.325 430.248
L705.673 428.563
L706.936 432.507
L708.148 430.703
L699.323 419.953
L701.701 418.974
L698.365 416.389
L683.681 415.919
L678.66 417.367
L674.322 422.333
L669.805 422.309
L668.341 417.992
L671.099 415.117
L676.993 412.026
L677.31 414.823
L677.17 414.967
L677.157 414.211
L675.708 411.731
L679.568 418.705
L678.388 424.002
L680.477 424.053
L678.623 434.121
L673.998 430.768
L678.711 434.722
L676.303 438.677
L680.352 438.452
L674.243 438.181
L675.632 433.502
L678.922 434.568
L673.647 436.26
L664.733 431.798
L665.498 430.438
L666.64 430.891
L668.29 436.421
L668.597 436.42
L663.469 434.133
L666.174 438.916
L670.503 436.164
L673.316 434.941
L670.919 435.329
L682.093 437.321
L682.134 437.535
L687.508 436.518
L683.353 436.515
L684.177 432.463
L683.953 431.413
L678.712 433.982
L678.211 440.145
L680.122 441.057
L678.789 440.114
L679.903 440.556
L687.937 444.616
L691.786 443.536
L690.77 437.926
L690.843 437.923
L690.309 439.487
L689.255 444.311
L693.935 448.758
L695.702 451.828
L695.129 453.375
L692.887 454.771
L687.222 452.629
L684.74 454.461
L684.98 462.415
L682.386 463.04
L682.267 462.088
L674.147 476.162
L679.303 481.417
L672.028 473.165
L668.133 476.352
L670.516 473.523
L671.335 471.936
L676.263 469.362
L668.471 469.244
L662.899 473.445
L662.929 473.592
L663.457 473.483
L666.435 477.733
L664.988 477.945
L662.615 476.347
L661.644 475.905
L661.084 476.256
L662.966 468.86
L664.336 469.745
L662.156 473.055
L659.873 480.747
L667.232 479.514
L666.913 473.359
L666.855 473.54
L667.907 475.225
L666.639 476.588
L675.021 474.787
L674.57 471.79
L670.955 470.088
L670.103 471.734
L678.025 471.305
L679.803 474.221
L680.601 470.856
L679.954 471.361
L682.463 469.841
L670.054 468.655
L660.747 462.677
L665.056 464.174
L663.901 465.525
L657.91 462.407
L657.946 462.395
L651.012 461.586
L647.985 462.618
L647.784 463.467
L652.781 461.818
L652.926 461.429
L656.491 455.941
L656.091 453.114
L656.706 450.166
L662.372 447.029
L661.951 445.69
L664.385 443.482
L670.869 441.507
L674.297 444.085
L676.71 462.656
L671.92 463.953
L659.462 467.548
L661.046 468.192
L661.946 468.054
L665.114 464.823
L674.204 462.719
L674.811 459.489
L678.259 460.462
L686.541 458.938
L691.258 457.686
L690.537 458.467
L691.339 458.215
L689.733 458.496
L684.798 456.176
L676.568 457.71
L681.162 453.414
L680.95 452.062
L681.868 452.449
L678.726 456.691
L677.808 460.038
L676.139 463.211
L676.226 458.465
L681.531 458.849
L689.21 457.647
L690.1 456.308
L697.964 461.715
L691.961 460.153
L694.465 459.96
L699.532 462.051
L695.741 466.471
L699.4 471.809
L699.132 472.399
L694.813 472.67
L692.823 474.548
L691.824 471.582
L692.103 471.295
L697.483 474.549
L695.785 473.144
L688.516 478.038
L683.694 477.229
L683.92 477.253
L687.435 473.379
L692.884 469.451
L692.589 466.079
L689.293 465.883
L688.275 469.214
L683.439 466.305
L685.511 465.66
L690.425 470.582
L689.037 465.77
L688.689 466.475
L697.132 468.137
L695.668 463.159
L695.794 464.199
L699.313 461.394
L698.473 459.695
L698.473 459.695" style="fill:none;stroke:#859900;stroke-linecap:square;stroke-width:2;"/>
   </g>
   <g id="line2d_2">
    <path clip-path="url(#p842b7fb432)" d="
M698.473 459.695" style="fill:none;stroke:#859900;stroke-linecap:square;"/>
    <defs>
     <path d="
M-5 5
L5 5
L5 -5
L-5 -5
z
" id="m41d49701f5" style="stroke:#000000;stroke-linejoin:miter;stroke-width:0.5;"/>
    </defs>
    <g clip-path="url(#p842b7fb432)">
     <use style="fill:#859900;stroke:#000000;stroke-linejoin:miter;stroke-width:0.5;" x="698.473012589" xlink:href="#m41d49701f5" y="459.69510343"/>
    </g>
   </g>
   <g id="line2d_3">
    <path clip-path="url(#p842b7fb432)" d="
M710.525 306.884
L711.971 308.426
L711.971 308.426
L711.971 308.426
L711.934 308.432
L712.992 307.36
L730.136 309.626
L745.463 307.12
L745.806 306.28
L730.81 311.05
L732.001 308.109
L732.512 309.763
L736.088 314.971
L735.424 314.804
L732.389 315.917
L725.733 314.425
L730.668 318.923
L677.456 304.903
L688.55 303.311
L696.776 302.718
L680.316 317.819
L702.934 302.566
L707.476 296.412
L704.3 280.234
L704.311 280.257
L701.952 279.507
L715.883 276.179
L711.015 256.094
L712.03 258.425
L715.764 252.716
L714.978 247.468
L704.428 233.602
L702.643 229.271
L694.702 231.031
L728.256 226.529
L703.745 226.723
L702.273 227.077
L708.23 227.807
L661.51 358.847
L661.071 358.743
L662.636 355.883
L661.092 341.562
L702.828 359.539
L705 342.714
L713.235 358.299
L712.981 358.216
L714.654 363.764
L731.403 351.124
L734.766 338.849
L743.784 333.153
L757.324 344.457
L768.133 339.719
L777.952 333.122
L764.903 336.965
L767.362 333.909
L756.942 337.253
L763.033 346.543
L763.007 346.546
L774.291 335.719
L814.213 333.546
L817.816 336.188
L816.483 336.7
L811.996 335.062
L810.333 339.049
L815.706 340.309
L811.559 342.811
L839.121 341.757
L834.837 342.667
L829.172 348.271
L844.463 344.549
L839.159 351.823
L828.908 351.657
L820.282 352.042
L822.107 372.429
L819.677 374.96
L627.047 512.275
L725.792 653.356
L725.63 672.667
L725.295 671.327
L722.91 663.344
L732.386 653.645
L717.025 638.388
L703.818 632.661
L703.095 632.626
L700.6 624.707
L690.755 626.302
L640.787 755.484
L639.036 756.505
L638.844 752.864
L646.767 754.476
L659.52 758.232
L657.815 752.565
L664.422 753.145
L670.711 752.584
L671.803 765.511
L669.86 766.282
L673.022 760.035
L669.867 756.02
L665.376 749.83
L828.656 674.465
L819.954 654.405
L848.396 651.383
L852.649 631.761
L850.546 625.864
L852.189 628.641
L847.244 623.445
L847.588 623.5
L862.422 627.56
L871.147 627.955
L909.819 631.456
L904.33 631.183
L904.224 630.679
L904.446 629.409
L903.843 634.159
L915.029 638.785
L910.975 639.08
L910.351 639.818
L909.357 643.783
L898.134 638.866
L898.486 630.349
L896.273 633.807
L896.201 633.739
L900.434 636.228
L902.574 630.588
L902.806 632.905
L896.851 632.823
L885.798 640.257
L890.639 637.379
L895.59 632.635
L896.863 630.786
L899.005 625.005
L892.432 624.482
L863.641 623.852
L871.535 623.132
L880.174 609.468
L874.997 612.161
L871.262 612.187
L870.331 607.89
L869.394 607.299
L833.539 599.213
L836.694 598.043
L836.247 597.892
L838.257 598.07
L856.673 572.619
L862.982 570.136
L864.078 571.667
L873.064 578.719
L868.154 585.622
L868.759 583.619
L870.3 595.112
L889.563 597.751
L888.962 590.973
L889.593 592.993
L888.82 591.376
L879.126 595.934
L876.546 596.75
L880.891 598.256
L882.822 601.378
L836.981 607.428
L818.02 601.191
L810.791 603.901
L824.48 603.027
L831.122 605.262
L853.74 603.541
L859.626 607.352
L862.135 616.625
L871.444 625.602
L874.262 614.588
L877.223 601.142
L876.592 601.032
L837.645 626.559
L838.602 626.838
L838.913 626.484
L824.065 644.351
L821.289 648.706
L821.588 652.32
L828.558 649.573
L787.043 642.776
L453.389 604.033
L452.514 604.99
L453.93 605.719
L465.849 608.415
L459.905 612.06
L462.161 605.797
L462.739 605.372
L441.415 596.32
L442.015 596.163
L408.772 581.278
L425.193 581.314
L430.052 582.525
L430.155 583.102
L425.23 580.731
L416.304 572.829
L416.939 572.604
L413.184 575.612
L400.972 589.985
L422.819 577.28
L411.184 570.799
L414.46 568.637
L454.024 564.214
L447.557 565.489
L445.007 571.253
L449.509 572.501
L450.01 574.253
L457.242 593.635
L457.908 541.217
L454.671 535.391
L456.184 534.605
L442.02 530.749
L440.068 527.114
L430.933 532.827
L452.583 527.449
L460.396 533.203
L441.638 529.571
L436.736 535.147
L445 535.673
L465.14 509.329
L468.383 504.733
L468.597 504.741
L471.852 501.475
L455.512 496.855
L455.405 497.046
L403.143 514.154
L403.27 510.961
L396.039 510.62
L362.847 515.75
L361.451 516.212
L306.92 567.752
L296.931 576.666
L311.079 584.423
L305.1 574.815
L306.457 570.32
L350.763 540.642
L341.419 549.234
L327.143 550.221
L327.911 550.933
L321.537 480.024
L321.677 479.564
L324.807 481.253
L327.109 481.215
L330.273 479.573
L339.537 473.773
L321.752 467.996
L381.95 465.153
L379.714 462.298
L391.921 462.174
L406.968 487.119
L408.213 497.963
L409.442 495.156
L426.836 503.36
L423.347 502.772
L428.136 516.369
L431.444 517.458
L445.296 516.467
L442.139 513.184
L435.973 522.097
L432.649 519.862
L429.69 522.619
L430.755 522.775
L426.439 512.249
L425.916 513.046
L433.866 512.042
L424.49 511.588
L425.959 505.389
L426.158 505.505
L431.286 512.316
L430.078 507.812
L419.957 521.044
L429.474 523.637
L427.101 517.574
L464.291 494.224
L464.69 492.962
L467.53 497.98
L467.815 498.056
L474.755 503.644
L469.225 498.759
L470.737 499.938
L476.052 495.468
L492.08 496.795
L503.601 498.038
L490.335 502.596
L486.138 502.108
L490.905 502.51
L494.49 500.9
L493.455 500.122
L489.735 483.653
L489.821 483.498
L486.181 480.288
L480.787 478.781
L490.864 483.671
L489.011 485.73
L479.667 484.673
L457.494 485.569
L456.246 481.681
L452.066 481.388
L450.983 486.653
L440.184 490.181
L443.137 483.617
L444.832 490.113
L440.78 494.293
L441.385 497.989
L439.449 496.766
L441.001 497.721
L440.446 498.925
L439.935 496.547
L440.301 497.104
L435.311 493.184
L425.284 497.468
L426.58 495.464
L426.957 494.515
L427.028 493.898
L426.349 495.408
L434.595 491.543
L421.835 511.893
L422.836 511.671
L422.859 511.957
L421.464 510.909
L417.473 518.064
L407.179 535.578
L444.874 525.067
L444.868 525.077
L451.648 534.357
L455.657 539.149
L442.156 542.456
L443.335 543.705
L445.959 545.941
L443.742 540.332
L443.155 540.001
L444.222 538.289
L442.128 536.073
L441.348 536.02
L436.999 533.168
L399.242 502.157
L399.633 508.815
L398.495 515.138
L399.134 512.63
L400.859 512.258
L403.879 511.766
L409.164 514.678
L424.071 533.252
L428.416 530.781
L428.441 530.494
L427.928 530.838
L427.509 526.299
L479.96 452.93
L470.81 451.488
L481.782 463.77
L481.758 463.773
L483.711 457.966
L487.224 466.148
L487.119 465.38
L475.613 466.347
L483.203 464.054
L489.402 472.603
L505.732 473.624
L510.003 476.486
L510.146 479.015
L515.275 479.988
L519.684 473.807
L517.018 470.454
L538.582 481.131
L536.646 485.313
L536.329 485.513
L556.526 441.419
L552.749 428.492
L540.322 438.907
L539.225 420.5
L537.784 420.416
L518.395 416.241
L517.495 417.733
L515.741 416.96
L516.835 416.276
L519.47 416.595
L448.83 373.801
L442.662 379.103
L440.575 380.013
L448.146 379.396
L448.14 379.459
L457.134 359.949
L455.931 359.161
L457.677 363.671
L468.563 361.32
L468.978 362.84
L469.571 361.954
L464.865 360.097
L468.388 360.622
L457.852 356.306
L458.884 354.787
L450.712 349.233
L461.051 342.901
L438.948 341.015
L428.359 349.806
L487.625 377.587
L495.598 378.042
L491.953 379.547
L490.298 382.947
L490.446 382.929
L503.998 401.418
L502.846 402.179
L503.685 401.673
L514.925 405.659
L509.209 407.334
L519.387 413.964
L515.495 409.206
L510.169 408.118
L522.75 401.562
L491.055 408.4
L489.044 399.782
L492.5 402.463
L504.622 399.236
L519.885 401.826
L519.862 401.075
L520.804 403.645
L514.252 404.183
L520.091 392.044
L560.574 348.767
L565.755 349.514
L565.9 357.095
L567.08 360.658
L561.621 354.656
L560.546 356.559
L565.949 354.746
L569.772 361.063
L576.482 363.908
L575.889 366.47
L571.586 363.958
L568.446 366.538
L574.223 370.16
L562.068 367.419
L570.014 364.307
L568.756 365.251
L568.905 365.681
L564.089 365.926
L549.867 361.525
L549.981 361.5
L559.115 360.39
L558.981 360.076
L592.03 352.48
L593.201 354.334
L594.049 356.379
L604.519 368.217
L603.733 371.618
L608.071 370.049
L605.857 360.818
L607.689 358.63
L618.968 362.483
L615.698 361.995
L615.086 362.118
L591.099 356.944
L607.396 362.699
L601.661 370.006
L598.347 364.686
L598.192 364.656
L592.892 363.772
L596.256 361.98
L587.406 350.335
L586.523 350.441
L575.444 352.188
L582.278 353.602
L582.606 353.943
L579.888 342.687
L557.315 331.557
L571.396 338.483
L573.921 343.458
L590.506 333.389
L592.122 329.387
L575.717 345.26
L611.514 358.888
L616.398 370.602
L620.526 369.938
L621.377 368.607
L600.814 401.913
L619.382 401.678
L621.228 400.376
L694.634 439.909
L695.766 451.502
L684.438 471.75
L684.628 472.829
L680.415 465.887
L674.716 460.736
L668.684 450.981
L668.777 450.852
L645.99 411.42
L629.53 370.294
L628.598 388.542
L608.07 386.956
L612.369 386.081
L611.6 355.976
L600.959 349.886
L619.569 323.866
L611.189 303.621
L613.18 303.783
L613.451 306.796
L616.929 308.918
L615.663 308.116
L606.072 302.123
L595.827 312.043
L593.365 307.125
L571.669 319.18
L573.06 319.607
L555.247 292.339
L551.636 314.761
L577.727 343.072
L574.658 342.147
L562.001 328.507
L563.104 326.745
L561.744 331.843
L561.656 332.615
L559.714 331.828
L563.001 327.954
L612.651 357.305
L612.496 357.366
L612.099 356.228
L612.778 357.28
L603.764 372.406
L603.405 373.46
L638.428 364.929
L644.845 361.259
L644.176 362.124
L645.416 361.854
L645.297 357.337
L645.458 357.392
L652.868 348.806
L666.525 360.359
L666.528 360.347
L667.717 367.01
L670.242 366.285
L675.647 367.47
L677.131 368.033
L714.788 347.89
L718.791 341.418
L718.264 342.469
L720.033 332.108
L724.057 330.602
L702.588 305.513
L680.977 307.653
L682.678 308.95
L654.727 315.187
L643.799 327.855
L648.357 322.088
L649.78 332.69
L658.524 343.119
L651.981 347.555
L647.082 353.749
L647.554 360.026
L647.593 359.664
L648.548 360.194
L650.645 355.405
L655.173 352.57
L640.536 364.9
L653.811 356.175
L656.161 355.451
L659.516 351.105
L664.428 353.483
L665.069 351.107
L650.978 357.713
L653.506 355.02
L652.561 350.046
L650.272 344.065
L669.467 349.536
L669.457 349.243
L670.799 350.048
L675.981 346.761
L676.366 345.223
L681.364 342.859
L635.295 324.57
L630.309 319.84
L628.363 321.379
L627.682 319.136
L623.798 319.44
L634.009 314.639
L637.76 317.436
L662.462 301.397
L663.568 297.356
L659.622 294.417
L661.953 296.814
L655.286 282.66
L640.318 282.006
L636.357 277.799
L634.593 277.454
L628.366 282.752
L633.525 269.684
L629.616 273.539
L629.846 268.061
L625.214 262.957
L623.548 250.93
L624.098 251.013
L630.122 248.432
L636.123 249.863
L627.998 253.083
L650.909 257.407
L643.238 252.13
L647.425 247.608
L647.304 247.033
L643.608 254.355
L640.786 217.46
L644.81 223.521
L644.337 235.275
L617.213 219.63
L607.28 221.845
L612.897 221.557
L624.298 222.408
L629.278 216.216
L627.718 214.079
L627.71 214.689
L638.242 221.85
L896.744 252.784
L900.107 250.882
L895.026 248.751
L895.568 248.905
L904.984 249.842
L915.878 250.753
L914.333 238.711
L914.247 238.831
L936.005 231.516
L937.896 229.278
L944.885 229.89
L939.653 233.323
L935.891 233.722
L934.504 235.574
L934.387 236.052
L933.1 235.622
L928.948 235.053
L924.719 234.604
L924.117 235.112
L924.83 243.066
L917.368 255.307
L912.684 250.419
L868.542 259.072
L874.472 255.706
L865.632 256.413
L870.687 258.588
L870.294 258.992
L877.183 268.244
L883.017 256.387
L881.666 261.54
L877.702 255.449
L878.913 254.883
L863.528 246.096
L862.727 248.371
L869.556 245.148
L862.886 242.635
L865.117 244.728
L856.086 260.168
L857.567 258.425
L854.226 257.407
L828.426 255.77
L811.558 262.776
L824.249 276.602
L827.405 278.43
L824.233 286.876
L823.59 293.828
L824.453 294.201
L821.197 293.633
L820.799 293.443
L821.043 294.563
L822.466 319.532
L822.722 315.118
L838.131 306.685
L841.151 312.629
L834.71 302.424
L834.681 302.847
L832.525 306.723
L828.317 296.442
L825.609 297.032
L834.461 301.398
L823.463 299.684
L825.077 317.044
L824.121 317.44
L830.163 323.132
L859.215 322.49
L879.647 307.417
L874.993 302.351
L1157.34 136.188
L1158.22 136.849
L1155.18 135.539
L1151.62 130.64
L1200.41 87.3667
L1193.53 83.791
L1199.33 85.8717
L1197.48 83.8785
L1197.06 83.6007
L1189.98 87.4095
L1194.93 87.8972
L1193.86 86.9237
L1200.32 89.9543
L1193.78 92.1985
L1191.99 87.2359
L1201.33 91.4979
L1201.12 99.4367
L1196.08 109.669
L1204.42 109.429
L1210.79 109.478
L1199.73 95.1147
L1196.5 103.156
L1184.74 98.879
L1200.62 111.646
L1214.62 109.192
L1213.34 109.32
L1210.84 107.682
L1203.69 116.986
L1201.86 116.949
L1200.36 120.084
L1202.89 122.011
L1238.16 113.88
L1237.17 114.397
L1236.37 114.98
L1205.81 126.869
L1212.39 128.684
L1203.04 122.064
L1214.39 120.606
L1214.89 118.804
L1227.47 105.481
L1210.59 98.6542
L1201.95 102.669
L1205.33 100.744
L1214.51 95.1753
L1212.51 98.7318
L1207.78 105.568
L1227.24 97.1662
L1232.07 97.7989
L1232.99 97.5577
L1233.14 98.0513
L1232.72 98.9286
L1209.4 113.855
L1213 128.275
L1202.28 153.791
L1229.3 114.283
L1231.69 115.362
L1223.67 117.544
L1230.54 121.571
L1231.72 125.945
L1232.77 124.229
L1211.16 118.3
L1214.38 128.023
L1214.04 131.924
L1246.67 154.147
L1243.38 157.651
L1245.23 158.345
L1270.25 154.223
L1279.86 150.153
L1282.29 149.785
L1274.29 155.802
L1263.47 133.779
L1264.66 133.243
L1269.42 132.865
L1269.14 131.884
L1269.12 125.878
L1268.98 125.909
L1272.73 122.416
L1274.06 117.44
L1271.31 117.491
L1266.5 120.07
L1251.23 124.58
L1244.8 125.739
L1247.22 133.568
L1244.96 136.291
L1248.64 139.582
L1251.91 142.737
L1253.14 152.075
L1255.06 153.205
L1230.19 168.406
L1227.78 158.164
L1227.11 158.769
L1237.48 162.653
L1237.45 162.162
L1255.12 157.414
L1256.11 156.797
L1229.74 175.333
L1229.69 178.383
L1233.6 173.77
L1234.16 173.768
L1223.72 157.948
L1223.03 172.408
L1219.42 172.028
L1202.42 163.544
L1199.05 172.932
L1201.44 170.864
L1200.38 168.74
L1200.85 168.58
L1200.1 167.687
L1196.68 171.035
L1197.54 171.736
L1190.35 178.668
L1187.91 180.299
L1185.43 169.505
L1204.04 154.751
L1201.45 154.077
L1193.89 156.811
L1172.23 170.47
L1176.51 169.334
L1178.58 169.203
L1140.93 147.225
L1176.12 181.969
L1177.41 182.31
L1179.09 186.59
L1179.09 186.59
L1179.09 186.59
L1175.91 178.357
L1177.44 189.254
L1237.65 216.678
L1229.95 221.326
L1229.45 220.273
L1217.7 226.419
L1217.71 226.3
L1222.32 222.87
L1222.39 221.787
L1222.17 221.254
L1238.64 226.286
L1235.52 240.78
L1231.31 240.175
L1240.08 236.883
L1240.1 233.364
L1234.92 230.115
L1342.95 166.132
L1340.28 166.347
L1308.12 167.615
L1311.86 167.315
L1292.12 173.963
L1292.83 174.157
L1284.6 169.668
L1285.7 158.413
L1279.91 160.657
L1277.25 154.132
L1282.92 146.358
L1280.65 146.722
L1279.05 154.114
L1288.9 167.918
L1265.06 136.425
L1259.93 134.363
L1271.5 126.722
L1280.37 134.202
L1276.97 128.31
L1281.64 121.428
L1275.36 119.474
L1248.02 105.512
L1245.65 106.544
L1244.24 100.541
L1239.88 102.309
L1241.23 101.059
L1244.51 101.458
L1243.28 103.158
L1234.46 108.666
L1240.11 98.9
L1230.54 96.5096
L1248.86 108.392
L1252.7 109.795
L1257.3 121.032
L1253.76 118.792
L1243.83 102.681
L1249 98.1799
L1261.48 83.7049
L1263.63 84.2432
L1263.65 84.5287
L1263.29 88.7626
L1260 88.5477
L1282.19 87.2178
L1272.07 95.7563
L1274.92 97.6985
L1284.18 101.236
L1278.3 92.846
L1266.49 78.1331
L1264.04 87.4756
L1261.98 87.3724
L1273.92 66.0808
L1272.1 63.4556
L1376.21 158.483
L1382.31 185.405
L1382.75 188.163
L1349.16 177.901
L1374.69 172.584
L1375.84 172.848
L1374.63 177.559
L1376.93 179.39
L1376.99 185.731
L1373.95 193.519
L1374.85 191.088
L1377.75 192.212
L1381.4 194.542
L1384.05 200.751
L1316.08 196.253
L1311.93 197.561
L1311.47 198.673
L1310.78 197.928
L1249.4 133.425
L1256.31 140.817
L1268.46 146.302
L1266.99 152.087
L1269.35 148.292
L1292.79 198.608
L1303.05 195.34
L1296.25 192.635
L1309.63 192.565
L1305.14 194.351
L1302.59 194.937
L1305.38 186.102
L1317.86 178.471
L1363.63 356.215
L1361.98 354.719
L1362.38 354.628
L1370.83 359.703
L1348.38 355.472
L1343.22 355.289
L1346.55 362.966
L1356.53 359.953
L1358.21 359.141
L1349.24 360.6
L1362.46 344.79
L1366.33 342.006
L1365.21 339.492
L1365.42 341.459
L1326.37 359.069
L1316.73 356.525
L1320.31 358.344
L1319.43 357.752
L1322.97 343.721
L1327.96 346.784
L1321.83 347.529
L1318.96 340.956
L1305.52 324.993
L1355.12 295.28
L1355.28 295.385
L1355.23 295.402
L1347.96 293.487
L1346.45 291.411
L1345.12 291.836
L1349.36 283.365
L1352.47 284.395
L1356.43 282.67
L1356.43 282.691
L1372.9 314.142
L1367.24 306.695
L1350.99 300.989
L1355.7 294.406
L1370.5 285.123
L1380.71 288.593
L1382.38 286.922
L1378.31 284.763
L1363.44 281.779
L1358.67 306.811
L1354.86 312.552
L1354.62 312.437
L1356.59 313.196
L1351.98 314.348
L1362.57 328.061
L1362.45 327.158
L1359.45 322.255
L1360.69 327.357
L1360.63 327.249
L1359.82 327.555
L1363.45 331.066
L1365.76 324.042
L1386.28 355.51
L1392.41 353.372
L1395.11 348.571
L1395.51 348.666
L1421.87 352.974
L1394.36 353.204
L1404.3 361.091
L1399.18 361.384
L1398.32 356.758
L1395.65 363.24
L1398.27 364.747
L1397.33 363.144
L1392.57 366.67
L1392.16 367.466
L1383.26 358.836
L1381.01 366.1
L1387.48 363.568
L1434.49 350.911
L1434.99 349.735
L1441.17 348.083
L1443.92 354.281
L1448.96 353.86
L1444.31 348.88
L1445.78 347.87
L1445.78 354.047
L1446.24 360.196
L1447.47 368.468
L1402.6 422.243
L1404.45 419.753
L1413.67 417.35
L1375.67 413.871
L1361.38 420.44
L1361.72 420.337
L1359.15 415.196
L1360.47 416.168
L1363.39 413.05
L1368.63 412.519
L1374.28 404.425
L1374.28 404.425" style="fill:none;stroke:#268bd2;stroke-linecap:square;stroke-width:2;"/>
   </g>
   <g id="line2d_4">
    <path clip-path="url(#p842b7fb432)" d="
M1374.28 404.425" style="fill:none;stroke:#268bd2;stroke-linecap:square;"/>
    <defs>
     <path d="
M-5 5
L5 5
L5 -5
L-5 -5
z
" id="m94bc99054e" style="stroke:#000000;stroke-linejoin:miter;stroke-width:0.5;"/>
    </defs>
    <g clip-path="url(#p842b7fb432)">
     <use style="fill:#268bd2;stroke:#000000;stroke-linejoin:miter;stroke-width:0.5;" x="1374.28077692" xlink:href="#m94bc99054e" y="404.424982342"/>
    </g>
   </g>
   <g id="line2d_5">
    <path clip-path="url(#p842b7fb432)" d="
M710.525 306.884" style="fill:none;stroke:#000000;stroke-linecap:square;"/>
    <defs>
     <path d="
M0 5
C1.32602 5 2.5979 4.47317 3.53553 3.53553
C4.47317 2.5979 5 1.32602 5 0
C5 -1.32602 4.47317 -2.5979 3.53553 -3.53553
C2.5979 -4.47317 1.32602 -5 0 -5
C-1.32602 -5 -2.5979 -4.47317 -3.53553 -3.53553
C-4.47317 -2.5979 -5 -1.32602 -5 0
C-5 1.32602 -4.47317 2.5979 -3.53553 3.53553
C-2.5979 4.47317 -1.32602 5 0 5
z
" id="m70ce40298c" style="stroke:#000000;stroke-width:0.5;"/>
    </defs>
    <g clip-path="url(#p842b7fb432)">
     <use style="stroke:#000000;stroke-width:0.5;" x="710.5245" xlink:href="#m70ce40298c" y="306.883854911"/>
    </g>
   </g>
  </g>
 </g>
 <defs>
  <clipPath id="p842b7fb432">
   <rect height="776.764517857" width="1656.88390625" x="47.7709375" y="15.5971607143"/>
  </clipPath>
 </defs>
</svg>
