<?xml version="1.0" encoding="utf-8" standalone="no"?>
<!DOCTYPE svg PUBLIC "-//W3C//DTD SVG 1.1//EN"
  "http://www.w3.org/Graphics/SVG/1.1/DTD/svg11.dtd">
<!-- Created with matplotlib (http://matplotlib.org/) -->
<svg height="816pt" version="1.1" viewBox="0 0 1728 816" width="1728pt" xmlns="http://www.w3.org/2000/svg" xmlns:xlink="http://www.w3.org/1999/xlink">
 <defs>
  <style type="text/css">
*{stroke-linecap:butt;stroke-linejoin:round;}
  </style>
 </defs>
 <g id="figure_1">
  <g id="patch_1">
   <path d="
M0 816.3
L1728 816.3
L1728 0
L0 0
z
" style="fill:#ffffff;"/>
  </g>
  <g id="axes_1">
   <g id="line2d_1">
    <path clip-path="url(#p68f16864da)" d="
M214.614 135.378
L210.387 128.016
L217.56 133.479
L224.813 126.061
L235.857 138.578
L230.082 129.805
L227.548 126.482
L221.697 121.121
L226.174 117.965
L223.037 120.501
L223.205 123.688
L223.271 123.679
L217.329 121.041
L219.796 115.007
L236.622 97.2057
L230.027 100.234
L230.38 91.3223
L225.363 74.817
L228.169 73.842
L218.079 60.3527
L232.581 49.7085
L230.614 51.0939
L226.033 19.9554
L225.856 19.7959
L224.717 60.8655
L223.879 69.9709
L227.46 82.0515
L228.815 82.2694
L234.223 83.7742
L233.64 84.5203
L228.202 98.9067
L245.096 64.9981
L247.965 66.9556
L121.854 193.849
L124.428 180.483
L125.696 183.398
L127.777 181.025
L116.899 171.417
L108.191 186.795
L107.962 188.392
L100.337 190.297
L100.213 189.577
L104.489 182.198
L105.777 183.533
L106.18 184.638
L95.0745 177.323
L93.2764 180.52
L91.8557 181.598
L91.7916 178.989
L88.0453 180.652
L91.4411 197.991
L101.218 187.172
L99.7683 184.097
L98.1324 173.371
L86.5529 172.467
L79.2058 168.838
L77.3878 171.303
L82.8156 167.453
L81.8325 155.069
L82.9045 161.537
L83.3491 159.088
L83.3491 159.088
L83.3491 159.088
L82.7709 162.051
L83.6876 154.251
L78.3173 151.263
L78.4683 151.476
L74.8337 156.474
L76.6827 145.474
L70.7853 143.075
L72.2076 135.39
L135.607 148.519
L140.23 134.155
L138.661 138.611
L144.927 136.802
L147.168 135.497
L148.417 138.254
L162.875 124.384
L158.039 136.925
L157.656 142.327
L171.309 146.989
L173.973 147.032
L171.512 149.164
L193.871 158.424
L188.987 140.404
L192.765 149.423
L189.37 164.395
L188.733 165.944
L188.753 164.953
L187.191 162.408
L185.697 162.701
L185.457 173.481
L185.073 174.839
L190.418 149.074
L188.952 170.527
L163.267 163.23
L167.926 161.751
L168.169 160.654
L168.524 161.258
L167.151 163.592
L172.904 167.023
L172.619 166.994
L162.509 142.91
L159.198 129.949
L158.374 129.366
L158.107 134.788
L164.518 111.202
L169.782 146.696
L171.074 148.284
L171.41 148.303
L175.985 144.717
L173.911 157.756
L169.709 142.615
L169.188 141.288
L169.035 141.373
L169.542 133.494
L157.557 136.132
L158.752 136.768
L155.578 147.661
L164.097 136.367
L162.865 136.651
L159.125 136.355
L175.728 71.7005
L274.546 74.7253
L251.9 75.7009
L252.104 73.9255
L254.54 126.411
L250.728 137.868
L249.433 136.066
L251.154 127.156
L250.828 127.337
L242.777 135.447
L248.225 139.514
L251.196 139.808
L244.523 154.972
L245.979 158.078
L251.472 167.162
L252.325 166.202
L250.487 156.113
L251.638 148.128
L254.686 145.257
L252.649 149.683
L266.016 193.533
L266.978 194.159
L273.419 223.424
L273.007 223.194
L282.203 216.343
L282.242 216.785
L284.83 216.419
L284.347 215.129
L285.574 205.55
L287.385 206.148
L286.971 207.286
L282.002 184.584
L284.333 184.732
L287.326 187.886
L292.398 186.864
L296.568 197.846
L298.31 193.137
L289.267 188.259
L287.373 189.034
L271.948 170.759
L260.067 165.94
L259.075 183.504
L244.257 208.781
L253.202 209.91
L259.597 203.061
L260.059 195.984
L281.07 224.163
L277.027 228.051
L272.76 223.177
L276.786 227.911
L276.198 232.224
L273.797 229.993
L261.633 220.509
L273.085 207.52
L272.448 209.485
L271.081 195.728
L270.517 198.104
L270.388 197.847
L272.387 222.067
L256.241 224.029
L281.448 162.881
L275.151 185.636
L290.252 189.503
L289.161 171.631
L296.145 165.445
L295.033 165.778
L296.021 172.925
L292.217 174.592
L279.401 177.162
L487.556 82.0531
L485.425 79.7914
L484.002 78.8026
L481.939 81.7789
L483.184 93.1837
L486.014 96.4629
L492.675 106.578
L489.645 106.745
L489.645 106.745" style="fill:none;stroke:#268bd2;stroke-linecap:square;stroke-width:2;"/>
   </g>
   <g id="line2d_2">
    <path clip-path="url(#p68f16864da)" d="
M214.614 135.378" style="fill:none;stroke:#859900;stroke-linecap:square;"/>
    <defs>
     <path d="
M-5 5
L5 5
L5 -5
L-5 -5
z
" id="m41d49701f5" style="stroke:#000000;stroke-linejoin:miter;stroke-width:0.5;"/>
    </defs>
    <g clip-path="url(#p68f16864da)">
     <use style="fill:#859900;stroke:#000000;stroke-linejoin:miter;stroke-width:0.5;" x="214.614322917" xlink:href="#m41d49701f5" y="135.377848214"/>
    </g>
   </g>
   <g id="line2d_3">
    <path clip-path="url(#p68f16864da)" d="
M489.645 106.745" style="fill:none;stroke:#dc322f;stroke-linecap:square;"/>
    <defs>
     <path d="
M-5 5
L5 5
L5 -5
L-5 -5
z
" id="md6b91b242b" style="stroke:#000000;stroke-linejoin:miter;stroke-width:0.5;"/>
    </defs>
    <g clip-path="url(#p68f16864da)">
     <use style="fill:#dc322f;stroke:#000000;stroke-linejoin:miter;stroke-width:0.5;" x="489.644934002" xlink:href="#md6b91b242b" y="106.745262484"/>
    </g>
   </g>
  </g>
  <g id="axes_2">
   <g id="line2d_4">
    <path clip-path="url(#p8bb0302e1d)" d="
M741.518 228.541
L739.957 232.954
L740.331 232.614
L756.613 234.919
L757.997 234.359
L761.741 233.347
L760.403 234.681
L739.541 220.247
L738.629 215.078
L738.502 205.459
L744.059 205.43
L746.481 207.479
L739.698 201.016
L734.03 196.699
L737.141 194.069
L734.945 182.432
L735.294 182.058
L734.977 182.677
L732.064 182.773
L728.353 201.049
L729.284 197.144
L731.053 198.314
L728.781 198.652
L727.701 198.637
L747.666 218.107
L747.12 218.618
L747.767 216.482
L749.985 216.569
L756.713 218.018
L761.47 216.279
L761.651 213.235
L662.863 88.7075
L662.699 87.0135
L664.293 84.5807
L659.442 73.763
L656 72.6789
L661.334 70.9668
L663.32 71.5126
L669.811 75.4622
L669.221 73.6943
L666.857 75.5553
L666.909 75.6616
L660.706 71.9877
L657.984 77.8235
L649.695 73.6171
L650.007 71.7455
L647.706 70.8235
L672.913 62.3077
L671.535 64.5928
L669.984 59.8956
L670.431 61.5263
L671.348 63.3034
L659.554 52.4545
L657.833 53.0967
L655.686 50.6737
L656.334 50.6261
L657.966 51.1909
L657.68 51.3747
L658.167 53.4756
L652.9 58.2243
L657.963 57.8188
L659.976 58.2884
L659.759 58.2641
L657.026 51.4624
L656.161 50.7754
L659.835 52.3277
L659.836 52.2458
L657.201 50.0389
L657.57 47.4276
L656.909 46.0454
L657.674 45.5309
L659.101 45.9409
L664.297 44.3801
L652.898 46.9726
L647.397 49.3819
L647.92 48.9647
L647.975 51.3373
L654.342 50.012
L652.924 49.3104
L654.582 46.6054
L664.945 44.6116
L659.047 47.1333
L657.381 46.2356
L656.037 45.3602
L697.363 50.0608
L699.494 48.4548
L703.134 46.3505
L700.142 49.318
L696.61 51.7614
L696.892 54.4023
L698.341 53.9087
L698.802 53.2638
L700.297 54.7455
L698.879 56.7584
L696.849 55.1163
L693.412 58.9606
L693.438 58.9542
L701.235 56.2501
L707.666 55.694
L706.424 54.0336
L715.363 51.2159
L718.486 60.2282
L715.9 63.2378
L721.182 65.3191
L713.982 67.1673
L711.446 66.7366
L711.4 53.9739
L710.019 51.8918
L710.675 50.9377
L710.622 51.6982
L703.223 33.2017
L702.491 30.2306
L688.126 40.6629
L684.933 29.8332
L676.25 24.8081
L675.796 22.9305
L626.088 43.7381
L626.353 44.8608
L623.467 44.6829
L625.081 39.3415
L626.027 40.3903
L625.618 38.775
L622.443 35.026
L1091.89 216.825
L1039.49 206.764
L1031.66 204.381
L1031.51 203.876
L1029.22 203.924
L1031.16 199.514
L1035.19 194.974
L1030.8 191.42
L1025.43 185.788
L1026.02 185.217
L1030.92 192.152
L1033.09 191.138
L1033.71 192.436
L1034.31 192.41
L1035.99 193.452
L1029.99 180.143
L1030.47 180.804
L1029.31 182.872
L1027.65 181.701
L1028.27 187.15
L1028.55 187.675
L1024.26 185.694
L1018.24 184.827
L1014.64 179.02
L1013.61 178.418
L1018.74 186.006
L1017.92 186.519
L1018.2 180.983
L1016.57 180.681
L1015.39 178.704
L1015.33 167.786
L1013.35 166.223
L1018.38 165.565
L1017.06 165.424
L993.736 170.39
L986.613 168.119
L976.99 161.791
L977.103 161.883
L979.481 166.365
L981.644 168.849
L982.74 168.145
L983.165 161.939
L983.358 161.172
L982.504 159.397
L984.716 157.87
L987.341 156.256
L988.703 154.691
L988.998 154.843
L988.788 152.803
L987.144 149.778
L981.926 143.704
L983.592 144.534
L984.96 145.406
L988.721 142.223
L980.931 123.819
L986.596 126.939
L984.846 124.146
L988.94 130.468
L987.865 132.848
L991.228 131.323
L989.428 120.117
L998.153 118.146
L998.974 119.203
L996.814 118.036
L994.571 113.47
L994.865 114.002
L996.215 123.218
L993.787 123.619
L994.771 123.276
L1001.32 118.614
L1005.2 113.747
L999.777 113.823
L999.777 113.823" style="fill:none;stroke:#268bd2;stroke-linecap:square;stroke-width:2;"/>
   </g>
   <g id="line2d_5">
    <path clip-path="url(#p8bb0302e1d)" d="
M741.518 228.541" style="fill:none;stroke:#859900;stroke-linecap:square;"/>
    <g clip-path="url(#p8bb0302e1d)">
     <use style="fill:#859900;stroke:#000000;stroke-linejoin:miter;stroke-width:0.5;" x="741.517851563" xlink:href="#m41d49701f5" y="228.540605159"/>
    </g>
   </g>
   <g id="line2d_6">
    <path clip-path="url(#p8bb0302e1d)" d="
M999.777 113.823" style="fill:none;stroke:#dc322f;stroke-linecap:square;"/>
    <g clip-path="url(#p8bb0302e1d)">
     <use style="fill:#dc322f;stroke:#000000;stroke-linejoin:miter;stroke-width:0.5;" x="999.777169807" xlink:href="#md6b91b242b" y="113.823405541"/>
    </g>
   </g>
  </g>
  <g id="axes_3">
   <g id="line2d_7">
    <path clip-path="url(#p1cc1874d03)" d="
M1629.87 228.541
L1610.53 225.311
L1589.5 250.975
L1581.95 237.509
L1589.51 233.524
L1587.1 237.393
L1599.27 233.193
L1606.92 237.841
L1606.7 236.636
L1617.27 227.351
L1621.48 226.815
L1620.26 224.728
L1619.3 234.411
L1613.94 231.781
L1621.96 233.566
L1638.09 83.0225
L1655.56 133.077
L1618.71 138.152
L1619.25 139.017
L1619.19 138.497
L1583.35 151.672
L1592.21 153.118
L1592.21 153.118
L1592.21 153.118
L1570.2 149.587
L1563.65 161.702
L1563.99 161.09
L1557.34 162.698
L1564.56 188.787
L1577.72 176.237
L1576.42 175.048
L1569.23 182.104
L1574.32 175.216
L1494.18 178.838
L1287.47 100.254
L1291.61 110.936
L1301.89 115.94
L1299.15 116.784
L1285.92 117.428
L1285.39 119.458
L1283.08 121.362
L1279.63 121.116
L1286.49 114.373
L1298.93 111.486
L1374.98 87.6341
L1364.06 90.9617
L1360.54 92.9584
L1364.13 73.419
L1341.11 65.3953
L1338.09 67.418
L1337.8 66.4592
L1347.28 69.0741
L1355.4 71.6115
L1361.85 75.5427
L1385.85 82.3183
L1297.88 100.262
L1282.98 111.062
L1300.56 112.956
L1297.28 118.884
L1293.95 117.228
L1294.22 117.355
L1300.97 120.149
L1302.31 113.763
L1301.86 114.164
L1307.75 128.504
L1307 127.684
L1324.4 123.753
L1349.29 122.012
L1339.89 115.998
L1343.09 123.291
L1343.62 123.823
L1344.35 128.693
L1363.57 118.168
L1375.3 133.982
L1368.17 122.061
L1365.1 107.639
L1359.51 104.452
L1367.8 110.559
L1400.82 106.723
L1389.12 100.592
L1393.24 107.012
L1397.3 99.9892
L1399.53 99.1188
L1398.58 100.207
L1398.66 102.22
L1417.73 105.989
L1425.5 124.451
L1421.24 111.571
L1407.81 125.263
L1405.82 122.032
L1409.55 124.624
L1413.19 123.807
L1418.44 119.154
L1416.02 121.376
L1386.5 119.771
L1387.52 119.294
L1389.64 111.325
L1394.42 109.354
L1407.62 194.753
L1396.33 197.077
L1395.45 196.431
L1396.49 202.944
L1406.92 148.931
L1412.89 151.957
L1417.97 163.448
L1417.49 164.027
L1360.99 156.716
L1353.88 158.72
L1353.29 159.095
L1349.91 165.448
L1344.53 159.087
L1357.79 167.021
L1357.49 162.222
L1352.79 161.476
L1350.65 144.64
L1349.3 146.437
L1330.28 151.926
L1315.79 159.338
L1303.42 155.18
L1331.87 152.577
L1330.25 152.249
L1330.25 152.249
L1330.25 152.249
L1333.02 152.781
L1336.29 158.867
L1325.81 160.482
L1340.48 162.924
L1337.03 159.87
L1317.38 164.98
L1316.56 165.34
L1326.31 180.112
L1325.59 173.04
L1328.28 179.839
L1327.94 176.041
L1328.46 175.992
L1323.81 158.748
L1324.13 154.242
L1326.99 133.5
L1373.65 136.189
L1377.02 139.358
L1372.57 143.664
L1373.83 146.354
L1379.36 140.95
L1380.01 146.265
L1376.89 145.228
L1375.8 139.294
L1361.59 139.488
L1402.26 84.8912
L1401.37 87.8417
L1406.54 90.6891
L1406.92 93.0291
L1399.6 92.8857
L1403.39 91.7191
L1402.62 91.9066
L1338.62 70.0829
L1308.72 93.6623
L1315.4 93.988
L1315.32 93.6591
L1315.66 93.8794
L1292.93 72.68
L1291.68 72.2898
L1279.66 74.7649
L1281.72 74.2844
L1265.4 69.7791
L1265.36 86.5871
L1274.13 95.242
L1275.3 98.2839
L1311.29 92.5838
L1306.04 96.1451
L1268.77 133.24
L1262.93 134.152
L1262.18 129.602
L1260.89 128.725
L1259.31 129.693
L1257.35 128.145
L1245.76 134.767
L1247.21 131.955
L1247.95 131.641
L1255.38 132.674
L1252.68 132.147
L1243.02 141.639
L1221.17 103.733
L1220.43 107.311
L1222.62 100.956
L1220.78 98.2023
L1236.77 90.4596
L1234.33 92.1661
L1237.87 81.8285
L1260.97 88.6493
L1259.68 90.5648
L1262.05 91.7422
L1317.5 87.8836
L1318.87 88.1061
L1317.43 95.5559
L1314.41 96.3473
L1325.14 75.3088
L1338.54 41.0429
L1335.45 43.4071
L1332.2 47.735
L1329.59 47.9555
L1337.1 57.7686
L1337.1 57.7686" style="fill:none;stroke:#268bd2;stroke-linecap:square;stroke-width:2;"/>
   </g>
   <g id="line2d_8">
    <path clip-path="url(#p1cc1874d03)" d="
M1629.87 228.541" style="fill:none;stroke:#859900;stroke-linecap:square;"/>
    <g clip-path="url(#p1cc1874d03)">
     <use style="fill:#859900;stroke:#000000;stroke-linejoin:miter;stroke-width:0.5;" x="1629.87196429" xlink:href="#m41d49701f5" y="228.540605159"/>
    </g>
   </g>
   <g id="line2d_9">
    <path clip-path="url(#p1cc1874d03)" d="
M1337.1 57.7686" style="fill:none;stroke:#dc322f;stroke-linecap:square;"/>
    <g clip-path="url(#p1cc1874d03)">
     <use style="fill:#dc322f;stroke:#000000;stroke-linejoin:miter;stroke-width:0.5;" x="1337.09649842" xlink:href="#md6b91b242b" y="57.7686324341"/>
    </g>
   </g>
  </g>
  <g id="axes_4">
   <g id="line2d_10">
    <path clip-path="url(#p51d30b24ac)" d="
M301.861 427.936
L294.963 424.374
L299.527 426.583
L313.932 422.289
L331.989 411.745
L344.441 416.765
L345.33 416.239
L312.767 421.856
L301.182 423.391
L301.852 423.523
L280.339 408.174
L274.674 409.46
L292.6 416.33
L295.649 416.037
L296.858 413.578
L296.046 409.157
L290.762 410.508
L288.662 410.142
L277.117 422.31
L362.883 403.689
L344.275 381.046
L346.073 381.491
L339.954 394.96
L344.601 392.402
L345.941 392.906
L347.716 391.047
L317.883 381.238
L323.384 380.937
L347.452 381.664
L348.072 380.358
L334.432 378.168
L312.915 375.843
L308.824 376.103
L301.192 359.894
L292.918 357.333
L298.9 362.371
L300.294 362.259
L298.454 362.567
L297.191 362.353
L291.497 397.246
L292.921 397.535
L293.698 396.672
L293.934 396.602
L305.156 391.6
L316.919 389.629
L316.118 391.068
L306.098 392.31
L306.651 395.147
L324.977 392.88
L325.478 391.328
L326.961 393.857
L317.498 385.174
L315.794 394.576
L334.653 388.088
L335.997 387.496
L300.131 494.391
L300.611 491.376
L304.164 487.243
L308.7 484.364
L310.648 491.465
L305.554 490.841
L288.455 496.044
L290.741 494.111
L294.727 503.877
L294.852 506.232
L299.566 506.058
L298.07 506.726
L296.528 500.903
L296.667 500.97
L293.617 502.138
L292.422 500.99
L292.567 501.89
L323.487 486.566
L325.346 485.959
L326.122 484.403
L333.022 481.601
L334.203 480.137
L282.162 497.985
L283.636 498.046
L273.669 497.034
L273.214 500.02
L287.321 482.368
L290.183 482.918
L283.313 481.004
L282.243 479.33
L279.529 478.198
L282.021 473.367
L286.329 475.719
L308.362 486.991
L313.467 483.711
L328.729 486.331
L323.043 476.144
L309.485 475.763
L309.526 475.119
L320.291 464.421
L318.109 464.704
L327.686 464.674
L326.199 460.769
L326.997 458.521
L333.292 459.706
L362.393 449.377
L344.836 452.902
L337.406 451.424
L333.579 455.037
L306.405 438.795
L306.198 442.519
L306.82 441.185
L308.731 446.388
L309.624 443.641
L314.379 449.215
L308.031 451.847
L322.522 463.671
L322.365 463.684
L315.317 466.978
L338.216 482.699
L337.06 487.321
L337.642 484.966
L343.208 483.829
L349.8 485.271
L358.997 481.55
L363.332 487.927
L358.251 491.486
L355.596 496.738
L200.461 406.048
L199.48 405.345
L205.141 409.048
L207.297 407.609
L196.191 413.314
L193.123 416.681
L183.642 416.869
L176.948 415.462
L209.062 406.114
L206.846 400.849
L62.5184 337.435
L83.4677 331.058
L83.8881 338.62
L241.49 294.494
L299.631 297.1
L300.2 296.56
L297.665 298.055
L301.903 302.883
L293.573 304.002
L296.208 303.455
L296.363 300.561
L285.068 312.377
L286.608 314.903
L283.696 316.751
L280.889 316.971
L281.394 315.347
L309.719 311.086
L316.339 308.796
L321.132 303.33
L327.801 304.109
L326.584 310.121
L433.369 370.925
L436.332 373.073
L436.489 375.156
L481.196 322.861
L467.553 322.215
L464.659 321.614
L462.35 325.603
L466.442 327.746
L467.104 328.533
L456.137 330.645
L466.563 331.238
L483.183 325.768
L490.13 334.666
L493.944 345.723
L492.53 348.401
L482.361 351.667
L489.976 354.277
L477.928 362.683
L479.405 355.992
L477.366 357.714
L439.564 317.864
L441.303 305.19
L444.086 301.537
L431.956 302.725
L433.185 302.414
L438.561 303.402
L428.491 305.068
L422.045 321.272
L417.466 321.97
L400.318 324.275
L395.296 324.182
L399.779 322.898
L348.315 313.177
L351.759 313.368
L344.506 293.226
L342.486 293.272
L393.698 317.38
L395.858 307.495
L403.717 315.081
L406.118 314.337
L406.184 315.917
L423.3 319.114
L423.3 319.114" style="fill:none;stroke:#268bd2;stroke-linecap:square;stroke-width:2;"/>
   </g>
   <g id="line2d_11">
    <path clip-path="url(#p51d30b24ac)" d="
M301.861 427.936" style="fill:none;stroke:#859900;stroke-linecap:square;"/>
    <g clip-path="url(#p51d30b24ac)">
     <use style="fill:#859900;stroke:#000000;stroke-linejoin:miter;stroke-width:0.5;" x="301.861015625" xlink:href="#m41d49701f5" y="427.935557143"/>
    </g>
   </g>
   <g id="line2d_12">
    <path clip-path="url(#p51d30b24ac)" d="
M423.3 319.114" style="fill:none;stroke:#dc322f;stroke-linecap:square;"/>
    <g clip-path="url(#p51d30b24ac)">
     <use style="fill:#dc322f;stroke:#000000;stroke-linejoin:miter;stroke-width:0.5;" x="423.300431979" xlink:href="#md6b91b242b" y="319.113556013"/>
    </g>
   </g>
  </g>
  <g id="axes_5">
   <g id="line2d_13">
    <path clip-path="url(#p1ffd2371cb)" d="
M820.04 483.833
L841.006 480.446
L834.247 479.201
L835.16 479.097
L920.967 466.63
L920.423 466.786
L921.769 466.853
L927.895 466.862
L913.556 467.899
L718.442 497.514
L722.361 493.383
L714.488 493.217
L750.333 489.085
L749.011 491.677
L746.971 493.462
L760.774 493.814
L741.215 492.182
L701.387 490.347
L707.147 491.717
L710.414 490.241
L711.148 491.037
L712.718 490.423
L719.283 490.068
L733.72 492.511
L731.394 492.692
L715.24 497.869
L701.341 505.756
L696.994 503.151
L720.39 502.657
L711.47 498.961
L670.184 498.066
L656.999 486.831
L641.388 471.579
L641.779 467.111
L666.077 470.795
L668.303 474.363
L666.474 473.459
L676.373 482.516
L669.911 482.173
L653.237 474.172
L656.625 474.66
L670.628 474.241
L709.524 481.558
L758.093 480.741
L762.135 478.816
L778.374 480.739
L781.484 474.1
L796.99 497.275
L780.747 499.384
L790.117 501.015
L793.634 502.78
L802.148 502.022
L818.759 502.045
L834.473 500.392
L832.525 501.848
L846.637 498.901
L843.185 497.953
L859.457 496.213
L862.821 497.034
L864.659 496.74
L847.053 497.29
L871.898 497.576
L866.247 497.271
L863.642 495.481
L803.174 489.114
L802.329 491.185
L804.876 490.645
L813.384 482.434
L818.964 482.539
L821.121 485.158
L798.655 488.764
L803.618 493.275
L795.729 492.605
L776.024 491.543
L771.822 488.625
L809.903 485.388
L1026.81 477.041
L1024.26 475.379
L1037.13 476.302
L1037.01 476.589
L1050.77 469.293
L1072.28 469.525
L1070.17 469.818
L1073.96 472.283
L1073.01 472.357
L1087.61 471.959
L1086.85 471.887
L1071.17 478.21
L1079.96 478.03
L1086.11 478.288
L1067.01 477.803
L1066.24 477.649
L1090.61 473.66
L1090.7 471.567
L1091.93 472.204
L1087.68 473.945
L1031.04 472.708
L1024.58 468.487
L1029.97 477.672
L906.514 418.695
L905.279 413.89
L901.885 413.591
L909.135 412.212
L917.504 412.751
L898.31 423.02
L901.251 414.946
L903.048 414.469
L901.341 413.867
L891.585 413.43
L920.813 411.336
L918.045 410.905
L906.36 411.826
L905.464 411.281
L924.032 412.768
L908.348 416.763
L920.642 414.178
L921.724 413.834
L919.921 415.414
L941.847 414.434
L946.172 413.855
L959.804 415.947
L957.005 414.131
L951.601 413.331
L967.916 406.474
L969.656 406.223
L887.511 398.316
L889.071 397.425
L887.673 397.042
L897.416 397.087
L870.058 393.803
L807.201 362.841
L812.542 363.17
L812.584 367.119
L793.648 366.677
L797.05 360.197
L765.373 349.008
L765.504 348.741
L835.423 350.133
L837.726 349.629
L838.832 349.614
L826.03 346.753
L830.438 345.559
L826.919 346.535
L827.383 347.233
L860.913 340.452
L913.174 331.889
L934.207 330.672
L929.684 330.601
L917.376 332.107
L917.726 332.385
L1088.52 313.929
L1099.64 312.518
L1124.22 313.482
L1105.4 313.761
L1091.05 310.534
L1066.94 311.601
L1080.01 314.038
L1114.72 316.887
L1087.06 323.65
L1083.7 321.551
L1077.51 322.917
L1078.06 322.645
L1093.07 322.662
L1083.31 317.285
L949.326 321.142
L975.22 322.426
L924.697 317.518
L931.267 316.176
L945.269 314.974
L942.259 312.586
L945.329 312.046
L992.859 308.25
L886.909 374.635
L848.785 373.182
L849.279 373.423
L852.398 373.345
L868.528 371.399
L864.386 373.18
L751.377 382.162
L753.192 381.888
L754.427 382.619
L766.223 383.555
L772.625 375.925
L766.613 369.951
L775.412 368.056
L783.036 360.677
L785.94 360.121
L791.347 355.87
L805.472 353.506
L806.625 354.461
L817.208 358.754
L820.537 359.827
L826.802 360.31
L829.497 362.004
L829.497 362.004" style="fill:none;stroke:#268bd2;stroke-linecap:square;stroke-width:2;"/>
   </g>
   <g id="line2d_14">
    <path clip-path="url(#p1ffd2371cb)" d="
M820.04 483.833" style="fill:none;stroke:#859900;stroke-linecap:square;"/>
    <g clip-path="url(#p1ffd2371cb)">
     <use style="fill:#859900;stroke:#000000;stroke-linejoin:miter;stroke-width:0.5;" x="820.039875" xlink:href="#m41d49701f5" y="483.83321131"/>
    </g>
   </g>
   <g id="line2d_15">
    <path clip-path="url(#p1ffd2371cb)" d="
M829.497 362.004" style="fill:none;stroke:#dc322f;stroke-linecap:square;"/>
    <g clip-path="url(#p1ffd2371cb)">
     <use style="fill:#dc322f;stroke:#000000;stroke-linejoin:miter;stroke-width:0.5;" x="829.497126846" xlink:href="#md6b91b242b" y="362.00448682"/>
    </g>
   </g>
  </g>
  <g id="axes_6">
   <g id="line2d_16">
    <path clip-path="url(#pf98ae99172)" d="
M1312.04 427.936
L1299.92 418.165
L1297.54 422.131
L1265.31 425.076
L1264.54 424.357
L1272.71 425.149
L1278.34 423.846
L1299.41 349.409
L1305.23 346.089
L1295.6 346.154
L1296.05 347.178
L1319.92 342.889
L1319.33 342.836
L1319.92 342.031
L1325.04 334.65
L1301.06 341.247
L1312.68 338.659
L1336.76 328.469
L1331.99 318.085
L1334.95 318.424
L1328.21 313.845
L1321.22 308.553
L1329.22 312.861
L1339.43 334.67
L1348.93 336.143
L1348.9 335.947
L1361.94 349.462
L1364.57 352.683
L1364.52 344.907
L1364.11 344.145
L1362.12 346.161
L1357.07 350.361
L1386.95 350.154
L1371.45 366.996
L1372.61 364.18
L1374.55 363.57
L1362.09 351.972
L1364.19 353.074
L1370.68 376.222
L1364.68 376.874
L1368.18 379.226
L1372.32 368.385
L1365.94 361.636
L1272.75 400.776
L1240.64 398.258
L1234.5 399.035
L1237.44 401.558
L1210.12 389.985
L1200.68 399.464
L1202.89 403.607
L1204.74 401.567
L1241.01 395.906
L1240.31 396.142
L1249.41 398.454
L1271.55 393.932
L1266.2 374.9
L1262.39 372.547
L1348.47 384.564
L1355.4 384.265
L1360.05 386.702
L1362.28 384.661
L1364.85 392.703
L1364.75 406.035
L1474.55 466.821
L1470.76 462.987
L1491.82 474.894
L1422.76 401.348
L1438.04 384.508
L1441.18 385.257
L1456.34 378.741
L1454.17 380.828
L1456.96 386.719
L1458.88 385.644
L1461.7 381.258
L1459.46 390.448
L1460.71 381.896
L1473.1 374.399
L1473.48 374.387
L1467.97 368.096
L1422.5 329.936
L1422.11 330.051
L1425.16 328.035
L1426.62 333.221
L1426.79 333.226
L1423.09 331.987
L1423.09 331.987
L1423.09 331.987
L1435.37 336.011
L1434.46 327.253
L1427.22 328.931
L1430.21 316.853
L1422.29 311.546
L1429.29 313.357
L1425 314.339
L1425.12 314.917
L1425.11 306.557
L1486.08 291.657
L1464.07 292.478
L1464.86 293.04
L1464.69 292.592
L1464.56 292.658
L1470.11 297.632
L1466.54 300.188
L1457.84 316.976
L1457.37 314.515
L1462.03 314.493
L1458.39 320.21
L1457.08 321.632
L1458.02 321.626
L1466.84 323.161
L1468.57 324.755
L1444.8 297.311
L1439.16 314.604
L1455.59 313.296
L1457.03 313.969
L1457.58 315.971
L1454.87 318.626
L1456.94 320.006
L1451.27 343.832
L1452.37 343.275
L1523.42 339.447
L1512.27 344.982
L1515.82 341.585
L1520.05 346.4
L1513.53 345.775
L1513.94 348.556
L1522.47 354.191
L1521.37 357.957
L1520.94 357.839
L1525.29 351.928
L1526.59 353.269
L1482.23 416.121
L1477.72 409.174
L1493.91 400.292
L1500.93 403.058
L1499.96 404.196
L1506.69 412.388
L1496.84 425.316
L1494.88 423.327
L1495.05 422.939
L1494.87 423.152
L1494.34 424.155
L1496.55 427.355
L1485.86 430.602
L1493.06 428.182
L1495.23 435.85
L1497.53 432.312
L1489.23 428.349
L1504.15 427.233
L1511.62 439.686
L1511.38 439.752
L1535.7 427.794
L1535.17 425.982
L1536.26 426.06
L1529.68 422.582
L1527.48 413.527
L1525.46 413.48
L1522.14 415.396
L1522.25 413.174
L1506.84 410.006
L1514.39 410.523
L1521.67 405.896
L1614.08 408.725
L1614.41 409.141
L1605.7 411.46
L1592.51 519.829
L1601.36 506.73
L1602.65 504.252
L1595.29 501.991
L1595.71 492.92
L1600.14 491.085
L1599.19 488.996
L1607.66 498.231
L1629.62 496.211
L1638.15 502.593
L1637.88 500.441
L1640.19 499.651
L1639.07 499.835
L1635.61 497.003
L1622.14 507.172
L1616.55 503.429
L1621.75 502.764
L1621.51 502.722
L1622.44 503.545
L1624.8 509.713
L1630.25 507.462
L1621.47 502.847
L1623.72 502.939
L1622.73 490.83
L1620.11 492.576
L1627 499.687
L1625.02 495.249
L1629.17 484.716
L1628.66 482.223
L1666.75 479.716
L1681.65 498.736
L1682.15 498.163
L1684.24 498.819
L1683.52 502.682
L1674.63 500.594
L1674.63 500.594" style="fill:none;stroke:#268bd2;stroke-linecap:square;stroke-width:2;"/>
   </g>
   <g id="line2d_17">
    <path clip-path="url(#pf98ae99172)" d="
M1312.04 427.936" style="fill:none;stroke:#859900;stroke-linecap:square;"/>
    <g clip-path="url(#pf98ae99172)">
     <use style="fill:#859900;stroke:#000000;stroke-linejoin:miter;stroke-width:0.5;" x="1312.04472656" xlink:href="#m41d49701f5" y="427.935557143"/>
    </g>
   </g>
   <g id="line2d_18">
    <path clip-path="url(#pf98ae99172)" d="
M1674.63 500.594" style="fill:none;stroke:#dc322f;stroke-linecap:square;"/>
    <g clip-path="url(#pf98ae99172)">
     <use style="fill:#dc322f;stroke:#000000;stroke-linejoin:miter;stroke-width:0.5;" x="1674.63496222" xlink:href="#md6b91b242b" y="500.593622197"/>
    </g>
   </g>
  </g>
  <g id="axes_7">
   <g id="line2d_19">
    <path clip-path="url(#pfcbd74beac)" d="
M476.354 712.508
L474.064 707.464
L474.468 707.438
L465.993 700.532
L464.739 698.155
L468.946 700.993
L464.441 700.416
L451.414 697.6
L432.494 708.016
L446.888 712.378
L430.571 709.979
L428.08 710.222
L418.092 705.135
L410.121 692.232
L270.301 698.42
L265.338 693.947
L256.931 695.17
L254.032 695.221
L259.777 686.248
L246.324 692.705
L241.851 690.517
L240.997 691.441
L241.329 691.932
L430.726 748.436
L390.987 763.65
L373.439 762.963
L370.841 764.082
L362.86 772.567
L363.388 778.917
L391.213 780.636
L393.675 781.766
L381.951 781.916
L380.196 787.394
L377.679 787.22
L380.296 790.161
L377.523 782.459
L379.677 784.499
L379.735 787.841
L357.663 777.542
L375.361 774.458
L375.818 773.018
L380.793 770.124
L387.242 775.662
L388.584 774.451
L395.086 775.485
L393.184 767.733
L393.653 767.771
L398.143 770.968
L398.949 770.139
L398.575 770.222
L416.634 768.798
L443.866 785.245
L450.433 784.983
L453.435 783.51
L457.135 782.767
L459.421 781.797
L490.892 783.865
L460.266 780.064
L450.027 777.376
L449.85 780.539
L450.543 779.088
L427.75 699.256
L427.673 705.469
L390.602 699.816
L399.891 693.827
L398.768 693.371
L371.653 557.558
L454.304 559.125
L456.921 562.009
L457.573 562.363
L456.89 562.946
L461.879 570.543
L468.712 571.059
L459.86 573.182
L464.064 576.545
L425.018 587.922
L424.452 604.214
L435.281 601.135
L444.154 598.379
L444.874 597.998
L410.676 585.601
L415.631 590.185
L405.925 590.656
L412.861 578.403
L414.7 578.864
L414.329 578.733
L429.13 572.478
L430.871 573.827
L440.25 575.723
L450.114 579.147
L455.174 581.205
L453.579 580.704
L437.068 585.684
L415.741 576.141
L431.252 576.114
L411.145 569.557
L395.659 569.13
L395.805 569.362
L409.117 570.839
L304.579 738.54
L302.163 729.621
L296.982 724.637
L315.837 731.109
L320.892 735.289
L327.802 734.057
L312.366 734.031
L291.87 743.208
L289.363 744.853
L256.557 735.598
L246.457 733.501
L245.015 731.936
L214.601 726.669
L227.057 724.291
L234.999 721.12
L251.772 716.239
L240.077 717.497
L243.276 717.846
L237.675 719.873
L243.523 708.967
L251.71 704.602
L242.348 698.735
L259.57 692.296
L257.957 700.144
L296.661 716.048
L297.254 717.706
L334.15 714.414
L338.345 712.676
L348.999 713.095
L348.508 711.889
L341.753 711.169
L339.732 717.271
L332.342 720.731
L327.212 718.807
L310.832 719.489
L311.788 714.039
L309.137 717.25
L322.358 710.424
L325.981 691.771
L335.031 700.698
L345.322 702.311
L308.601 718.637
L311.061 715.162
L311.545 718.951
L287.542 722.847
L285.559 721.983
L290.094 716.026
L281.514 714.653
L281.864 715.371
L276.988 703.265
L294.751 713.909
L295.387 714.059
L296.237 714.027
L295.54 713.393
L302.986 704.28
L303.059 704.455
L305.205 705.802
L297.258 704.351
L296.927 703.139
L294.987 706.362
L291.947 708.867
L250.927 710.035
L232.735 707.659
L223.598 704.729
L224.435 705.03
L230.401 698.629
L230.307 698.647
L111.099 735.631
L111.472 735.633
L118.291 731.141
L123.471 739.64
L126.316 736.156
L116.451 736.423
L118.622 736.716
L121.778 736.382
L132.425 737.152
L108.249 734.486
L104.832 735.378
L98.1776 740.102
L99.5939 739.245
L81.8029 750.421
L186.642 774.477
L187.879 776.16
L182.437 777.509
L182.022 778.923
L185.51 767.953
L185.51 767.953
L185.51 767.953
L180.953 782.325
L178.301 779.809
L190.145 785.12
L187.065 782.883
L186.19 781.892
L178.802 780.328
L175.62 783.459
L171.043 785.157
L157.257 787.32
L156.906 782.582
L156.906 782.582" style="fill:none;stroke:#268bd2;stroke-linecap:square;stroke-width:2;"/>
   </g>
   <g id="line2d_20">
    <path clip-path="url(#pfcbd74beac)" d="
M476.354 712.508" style="fill:none;stroke:#859900;stroke-linecap:square;"/>
    <g clip-path="url(#pfcbd74beac)">
     <use style="fill:#859900;stroke:#000000;stroke-linejoin:miter;stroke-width:0.5;" x="476.354401042" xlink:href="#m41d49701f5" y="712.507886905"/>
    </g>
   </g>
   <g id="line2d_21">
    <path clip-path="url(#pfcbd74beac)" d="
M156.906 782.582" style="fill:none;stroke:#dc322f;stroke-linecap:square;"/>
    <g clip-path="url(#pfcbd74beac)">
     <use style="fill:#dc322f;stroke:#000000;stroke-linejoin:miter;stroke-width:0.5;" x="156.905936477" xlink:href="#md6b91b242b" y="782.582128949"/>
    </g>
   </g>
  </g>
  <g id="axes_8">
   <g id="line2d_22">
    <path clip-path="url(#p43854d4702)" d="
M785.141 582.745
L775.122 576.093
L771.943 576.686
L775.903 583.194
L780.504 585.371
L755.198 582.164
L752.836 585.646
L787.48 587.319
L788.588 588.843
L785.431 591.18
L772.504 586.755
L772.597 586.678
L772.236 596.137
L768.053 587.314
L830.282 596.181
L820.106 592.141
L838.734 616.949
L837.89 617.336
L840.133 624.085
L860.181 630.7
L852.809 628.822
L859.517 626.318
L859.255 627.096
L859.668 626.55
L862.694 625.457
L863.778 625.659
L859.664 627.906
L860.523 628.246
L857.777 632.116
L855.48 627.324
L846.867 623.475
L844.751 627.365
L853.262 629.762
L856.357 620.685
L856.345 622.911
L863.871 618.926
L861.832 613.556
L861.313 594.708
L862.19 595.112
L871.664 601.824
L857.914 601.156
L857.637 601.024
L849.592 611.158
L850.654 614.212
L851.516 614.205
L830.211 618.396
L838.67 614.803
L855.245 592.534
L863.207 590.311
L862.599 593.783
L869.911 597.658
L864.501 590.277
L865.296 588.689
L859.802 577.08
L855.155 609.949
L860.655 617.442
L862.632 619.413
L858.374 617.334
L862.729 615.483
L869.361 617.986
L827.012 620.299
L826.545 620.114
L834.297 624.758
L812.109 620.774
L815.524 609.164
L809.964 616.466
L777.71 623.885
L778.944 624.218
L758.297 630.676
L767.274 621.629
L769.619 621.136
L783.894 602.156
L783.775 602.585
L783.409 605.932
L800.474 598.221
L817.865 607.064
L856.861 611.655
L856.753 610.414
L857.168 592.406
L853.879 601.464
L868.823 632.344
L856.482 636.558
L882.116 600.892
L858.536 572.15
L852.612 568.027
L852.256 586.982
L824.564 645.786
L826.36 644.271
L826.36 644.271
L826.36 644.271
L819.514 650.042
L820.428 649.737
L823.818 640.66
L835.898 601.738
L836.983 602.804
L828.676 600.334
L831.854 609.379
L826.009 605.031
L825.301 605.619
L820.846 604.555
L907.227 664.295
L968.995 717.065
L955.033 720.713
L961.644 729.496
L961.437 728.942
L954.385 729.956
L940.77 722.102
L940.297 721.476
L942.694 721.488
L930.922 713.729
L939.637 710.924
L948.725 712.793
L949.476 719.595
L950.741 720.073
L932.204 730.39
L918.07 710.471
L870.539 711.205
L871.795 709.201
L849.153 694.741
L854.305 698.545
L853.454 701.339
L828.815 694.136
L839.858 711.824
L849.312 734.286
L849.293 741.595
L846.605 737.725
L846.285 738.278
L846.751 742.055
L846.463 740.318
L845.905 738.319
L835.826 737.346
L862.474 715.459
L858.771 719.961
L860.425 723.382
L861.204 723.591
L850.717 719.515
L834.671 730.648
L824.179 740.143
L824.473 740.357
L817.226 740.765
L831.934 755.155
L829.696 754.541
L815.989 759.207
L813.42 760.209
L840.445 751.009
L839.76 750.08
L846.815 747.4
L845.878 744.703
L845.209 744.896
L845.907 745.692
L829.042 740.965
L830.252 737.663
L825.705 740.548
L828.465 744.745
L829.132 742.621
L829.834 750.34
L812.658 759.167
L820.764 790.982
L820.587 790.447
L816.075 782.675
L779.678 747.805
L774.925 732.715
L758.661 724.754
L776.278 721.395
L781.803 721.486
L766.831 713.594
L764.592 712.567
L766.128 718.448
L749.12 720.148
L750.377 716.713
L731.683 712.55
L727.161 712.136
L710.477 722.695
L727.736 720.436
L726.109 721.192
L726.004 721.677
L690.441 727.434
L1020.88 622.604
L1017.68 610.188
L1034.73 617.653
L1039.62 623.612
L1059.77 608.802
L1062.78 614.809
L1067.97 621.594
L1072.42 623.718
L1070.53 633.119
L1056.95 628.854
L1056.62 629.55
L1061.12 633.086
L1061.12 633.086
L1061.12 633.086
L1056.47 629.487
L1058.67 630.152
L1056.91 633.176
L1044.6 617.953
L1050.27 621.419
L1053.86 626.629
L1064.89 616.635
L1076.2 619.915
L1079.51 623.04
L1070.86 636.443
L1038.72 645.057
L1031.25 646.072
L1031.25 646.072" style="fill:none;stroke:#268bd2;stroke-linecap:square;stroke-width:2;"/>
   </g>
   <g id="line2d_23">
    <path clip-path="url(#p43854d4702)" d="
M785.141 582.745" style="fill:none;stroke:#859900;stroke-linecap:square;"/>
    <g clip-path="url(#p43854d4702)">
     <use style="fill:#859900;stroke:#000000;stroke-linejoin:miter;stroke-width:0.5;" x="785.141197917" xlink:href="#m41d49701f5" y="582.745475446"/>
    </g>
   </g>
   <g id="line2d_24">
    <path clip-path="url(#p43854d4702)" d="
M1031.25 646.072" style="fill:none;stroke:#dc322f;stroke-linecap:square;"/>
    <g clip-path="url(#p43854d4702)">
     <use style="fill:#dc322f;stroke:#000000;stroke-linejoin:miter;stroke-width:0.5;" x="1031.24815987" xlink:href="#md6b91b242b" y="646.072133757"/>
    </g>
   </g>
  </g>
  <g id="axes_9">
   <g id="line2d_25">
    <path clip-path="url(#p7b8c44a066)" d="
M1255.96 592.727
L1259.46 593.137
L1253.3 590.505
L1254.49 588.476
L1253.11 585.012
L1250.24 586.278
L1245.32 586.605
L1245.6 586.491
L1247.68 595.051
L1247.55 595.994
L1246.43 596.5
L1254.17 609.329
L1254.09 609.445
L1252.92 609.801
L1236.47 627.239
L1243.64 631.576
L1244.48 625.926
L1245.06 623.894
L1244.51 625.456
L1216.68 595.145
L1346.24 723.483
L1346.18 721.119
L1343.19 723.971
L1345.39 721.491
L1345.15 721.626
L1344.8 723.146
L1346.6 723.698
L1349 725.002
L1348.06 777.397
L1350.01 777.294
L1372.64 780.159
L1373.73 777.116
L1374.55 775.692
L1370.26 767.482
L1369.02 768.328
L1371.17 736.13
L1372.59 741.118
L1372.77 740.62
L1373.68 740.687
L1371.69 739.294
L1371.54 739.868
L1371.26 739.093
L1367.17 694.699
L1373.31 693.199
L1371.9 693.904
L1374.5 695.835
L1376.88 698.399
L1377.12 702.898
L1380.6 703.556
L1374.74 694.473
L1374.63 693.659
L1374.87 693.844
L1372.48 693.598
L1378.94 695.503
L1379.48 695.225
L1378.94 693.033
L1377.38 693.264
L1395.37 697.385
L1388.3 690.248
L1387.01 690.361
L1385.91 705.437
L1379.32 702.103
L1378.9 698.199
L1379.65 697.885
L1390.65 675.384
L1382.21 668.181
L1386.65 668.773
L1381.54 667.825
L1365.66 679.139
L1369.38 662.924
L1368.83 660.813
L1367.29 660.884
L1367.32 663.585
L1371.83 651.599
L1388.07 648.451
L1392.68 654.036
L1397.03 654.658
L1591.84 747.078
L1601.08 749.361
L1600.79 750.433
L1603.86 748.267
L1603.55 747.54
L1598.11 747.349
L1602.7 744.462
L1602.87 743.785
L1612.21 733.245
L1607.72 726.79
L1612.33 733.896
L1611.71 727.194
L1609.06 731.781
L1608.83 728.983
L1609.16 729.032
L1619.11 726.569
L1616.91 724.55
L1614.89 725.673
L1602.63 733.892
L1591.86 726.067
L1592.63 728.389
L1583.28 731.073
L1584.18 729.822
L1581.12 731.544
L1586.6 721.431
L1620.68 722.705
L1620.78 722.51
L1621.06 725.973
L1624.5 722.946
L1622.49 727.761
L1635.04 728.179
L1636.3 731.794
L1635.34 732.155
L1641.96 735.414
L1646.21 713.437
L1644.39 714.173
L1642.11 720.536
L1660.81 721.338
L1661.27 714.661
L1660.22 711.411
L1645.17 717.545
L1631.09 722.688
L1634.67 724.524
L1632.77 723.603
L1638.39 721.674
L1635.42 725.615
L1639.38 724.483
L1639.21 724.414
L1637.32 723.033
L1641.38 724.263
L1639.45 727.159
L1635.41 721.9
L1634.28 727.131
L1634.74 722.265
L1622.2 724.303
L1616.95 724.62
L1616.24 719.845
L1616.07 719.875
L1619.33 717.299
L1640.48 707.803
L1640.33 708.27
L1660.31 722.621
L1656.92 724.381
L1650.62 731.91
L1649.34 749.772
L1647.44 752.11
L1647.9 749.394
L1652.99 750.539
L1663.38 754.499
L1666.45 759.8
L1677.43 753.97
L1680.42 754.994
L1680.41 741.919
L1680.23 741.148
L1662.13 748.575
L1665.44 746.406
L1671.48 744.908
L1675.02 738.988
L1678.62 736.258
L1673.72 734.969
L1673.8 735.142
L1679.53 732.012
L1672.72 729.878
L1672.74 729.868
L1667.57 721.738
L1668.17 717.231
L1667.74 711.489
L1636.25 704.933
L1631.91 703
L1628.35 707.185
L1653.94 714.025
L1648.76 725.337
L1635.46 730.15
L1631.74 731.988
L1618.53 717.127
L1624.43 710.014
L1622.68 710.679
L1623.84 708.991
L1631.49 710.131
L1631.16 710.348
L1560.64 676.511
L1560.45 677.278
L1559.8 675.902
L1558.17 676.925
L1557.3 671.709
L1554.1 672.153
L1551.88 665.425
L1550.86 665.689
L1551.05 672.517
L1565.36 684.571
L1562.78 672.393
L1567.36 682.047
L1567.62 678.061
L1572.28 681.884
L1575.34 682.731
L1568.81 677.608
L1569.66 679.013
L1573.04 685.274
L1566.7 682.513
L1566.9 690.239
L1566.9 690.239" style="fill:none;stroke:#268bd2;stroke-linecap:square;stroke-width:2;"/>
   </g>
   <g id="line2d_26">
    <path clip-path="url(#p7b8c44a066)" d="
M1255.96 592.727" style="fill:none;stroke:#859900;stroke-linecap:square;"/>
    <g clip-path="url(#p7b8c44a066)">
     <use style="fill:#859900;stroke:#000000;stroke-linejoin:miter;stroke-width:0.5;" x="1255.95756696" xlink:href="#m41d49701f5" y="592.727199405"/>
    </g>
   </g>
   <g id="line2d_27">
    <path clip-path="url(#p7b8c44a066)" d="
M1566.9 690.239" style="fill:none;stroke:#dc322f;stroke-linecap:square;"/>
    <g clip-path="url(#p7b8c44a066)">
     <use style="fill:#dc322f;stroke:#000000;stroke-linejoin:miter;stroke-width:0.5;" x="1566.9002907" xlink:href="#md6b91b242b" y="690.238669018"/>
    </g>
   </g>
  </g>
 </g>
 <defs>
  <clipPath id="p7b8c44a066">
   <rect height="239.561375" width="523.48015625" x="1181.1746875" y="552.800303571"/>
  </clipPath>
  <clipPath id="p1ffd2371cb">
   <rect height="239.561375" width="523.48015625" x="610.6478125" y="284.198732143"/>
  </clipPath>
  <clipPath id="pfcbd74beac">
   <rect height="239.561375" width="523.48015625" x="40.1209375" y="552.800303571"/>
  </clipPath>
  <clipPath id="p43854d4702">
   <rect height="239.561375" width="523.48015625" x="610.6478125" y="552.800303571"/>
  </clipPath>
  <clipPath id="p8bb0302e1d">
   <rect height="239.561375" width="523.48015625" x="610.6478125" y="15.5971607143"/>
  </clipPath>
  <clipPath id="p51d30b24ac">
   <rect height="239.561375" width="523.48015625" x="40.1209375" y="284.198732143"/>
  </clipPath>
  <clipPath id="p68f16864da">
   <rect height="239.561375" width="523.48015625" x="40.1209375" y="15.5971607143"/>
  </clipPath>
  <clipPath id="p1cc1874d03">
   <rect height="239.561375" width="523.48015625" x="1181.1746875" y="15.5971607143"/>
  </clipPath>
  <clipPath id="pf98ae99172">
   <rect height="239.561375" width="523.48015625" x="1181.1746875" y="284.198732143"/>
  </clipPath>
 </defs>
</svg>
